<svg width="32" height="32" viewBox="0 0 32 32" fill="none" xmlns="http://www.w3.org/2000/svg">
  <g clip-path="url(#clip0)">
    <path d="M4.32088 8.13068C5.15644 7.54668 6.416 7.65868 7.16622 8.27823L6.30577 7.02757C5.61333 6.04001 5.86133 4.97157 6.84977 4.27823C7.83822 3.58757 10.6391 5.44446 10.6391 5.44446C9.94044 4.44712 10.0711 3.18312 11.0684 2.48357C11.5479 2.14853 12.1408 2.01754 12.7168 2.11938C13.2929 2.22121 13.8049 2.54755 14.1404 3.02668L23.4027 16.1111L22.2222 27.5556L12.3707 23.9627L3.77777 11.2222C3.61021 10.9837 3.49134 10.7144 3.42794 10.4298C3.36455 10.1453 3.35788 9.85099 3.40833 9.56385C3.45877 9.27671 3.56534 9.00233 3.72192 8.75641C3.87851 8.51049 4.08204 8.29786 4.32088 8.13068V8.13068Z" fill="#EF9645"/>
    <path d="M2.39558 15.4098C2.39558 15.4098 1.38936 13.9431 2.85691 12.9378C4.32269 11.9324 5.32802 13.3982 5.32802 13.3982L9.99558 20.2053C10.1565 19.9369 10.3325 19.672 10.5289 19.4107L4.05069 9.96443C4.05069 9.96443 3.04536 8.49866 4.51203 7.49332C5.9778 6.48799 6.98314 7.95377 6.98314 7.95377L13.0765 16.84C13.3031 16.6551 13.5351 16.4693 13.7742 16.2871L6.71025 5.98399C6.71025 5.98399 5.70491 4.51821 7.17158 3.51288C8.63736 2.50755 9.64269 3.97332 9.64269 3.97332L16.7067 14.2747C16.9662 14.1155 17.2231 13.9778 17.4809 13.832L10.8782 4.20355C10.8782 4.20355 9.87291 2.73777 11.3387 1.73243C12.8045 0.727101 13.8098 2.19288 13.8098 2.19288L20.7911 12.3742L21.8525 13.9227C17.4542 16.9395 17.0356 22.6151 19.5485 26.28C20.0507 27.0133 20.784 26.5111 20.784 26.5111C17.768 22.112 18.6889 17.1689 23.088 14.1529L21.7911 7.66221C21.7911 7.66221 21.3067 5.95199 23.016 5.46666C24.7262 4.98221 25.2116 6.69243 25.2116 6.69243L26.7094 11.1404C27.3031 12.904 27.9351 14.6613 28.7716 16.3235C31.1334 21.0169 29.7227 26.8498 25.2694 29.9049C20.4116 33.2355 13.7707 31.9973 10.4391 27.1404L2.39558 15.4098Z" fill="#FFDC5D"/>
    <path d="M10.6667 28.4818C7.11115 28.4818 3.51826 24.8889 3.51826 21.3333C3.51826 20.8418 3.15826 20.4444 2.6667 20.4444C2.17515 20.4444 1.74048 20.8418 1.74048 21.3333C1.74048 26.6666 5.33337 30.2595 10.6667 30.2595C11.1583 30.2595 11.5556 29.8249 11.5556 29.3333C11.5556 28.8418 11.1583 28.4818 10.6667 28.4818Z" fill="#5DADEC"/>
    <path d="M6.22222 30.2222C3.55556 30.2222 1.77778 28.4444 1.77778 25.7778C1.77778 25.542 1.68413 25.3159 1.51743 25.1492C1.35073 24.9825 1.12464 24.8889 0.888889 24.8889C0.653141 24.8889 0.427049 24.9825 0.26035 25.1492C0.0936505 25.3159 0 25.542 0 25.7778C0 29.3333 2.66667 32 6.22222 32C6.45797 32 6.68406 31.9063 6.85076 31.7396C7.01746 31.5729 7.11111 31.3469 7.11111 31.1111C7.11111 30.8754 7.01746 30.6493 6.85076 30.4826C6.68406 30.3159 6.45797 30.2222 6.22222 30.2222ZM21.3333 1.77777C21.0976 1.77777 20.8715 1.87142 20.7048 2.03812C20.5381 2.20482 20.4444 2.43091 20.4444 2.66666C20.4444 2.90241 20.5381 3.1285 20.7048 3.2952C20.8715 3.4619 21.0976 3.55555 21.3333 3.55555C24.8889 3.55555 28.4444 6.74577 28.4444 10.6667C28.4444 10.9024 28.5381 11.1285 28.7048 11.2952C28.8715 11.4619 29.0976 11.5555 29.3333 11.5555C29.5691 11.5555 29.7952 11.4619 29.9619 11.2952C30.1286 11.1285 30.2222 10.9024 30.2222 10.6667C30.2222 5.76533 26.6667 1.77777 21.3333 1.77777Z" fill="#5DADEC"/>
    <path d="M25.7778 0.037323C25.2871 0.037323 24.8889 0.398212 24.8889 0.888879C24.8889 1.37955 25.2871 1.8151 25.7778 1.8151C28.4445 1.8151 30.1849 3.79288 30.1849 6.22221C30.1849 6.71288 30.6196 7.1111 31.1111 7.1111C31.6027 7.1111 31.9627 6.71288 31.9627 6.22221C31.9627 2.81155 29.3334 0.037323 25.7778 0.037323Z" fill="#5DADEC"/>
  </g>
  <defs>
    <clipPath id="clip0">
      <rect width="32" height="32" fill="white"/>
    </clipPath>
  </defs>
</svg>
