<svg width="28" height="28" viewBox="0 0 28 28" fill="none" xmlns="http://www.w3.org/2000/svg">
  <path d="M14 1.75L1.75 12.25H2.625V26.6875H25.375V12.25H26.25L14 1.75Z" fill="url(#paint0_radial)"/>
  <path opacity="0.2" d="M14 2.61406L24.8238 11.8913C24.7581 11.9963 24.7188 12.1187 24.7188 12.25V26.0312H3.28125V12.25C3.28125 12.1187 3.24188 11.9963 3.17625 11.8934L14 2.61406ZM14 1.75L1.75 12.25H2.625V26.6875H25.375V12.25H26.25L14 1.75Z" fill="#424242"/>
  <path d="M27.125 27.125H4.375V25.375H26.25C26.7334 25.375 27.125 25.7666 27.125 26.25V27.125Z" fill="#689F38"/>
  <path opacity="0.2" d="M26.25 26.0312C26.3703 26.0312 26.4688 26.1297 26.4688 26.25V26.4688H5.03125V26.0312H26.25ZM26.25 25.375H4.375V27.125H27.125V26.25C27.125 25.7666 26.7334 25.375 26.25 25.375Z" fill="#424242"/>
  <path opacity="0.2" d="M15.9688 6.5625C16.2094 6.5625 16.4062 6.75937 16.4062 7V10.9375C16.4062 11.1781 16.2094 11.375 15.9688 11.375H12.0312C11.7906 11.375 11.5938 11.1781 11.5938 10.9375V7C11.5938 6.75937 11.7906 6.5625 12.0312 6.5625H15.9688ZM15.9688 6.125H12.0312C11.5478 6.125 11.1562 6.51656 11.1562 7V10.9375C11.1562 11.4209 11.5478 11.8125 12.0312 11.8125H15.9688C16.4522 11.8125 16.8438 11.4209 16.8438 10.9375V7C16.8438 6.51656 16.4522 6.125 15.9688 6.125Z" fill="#424242"/>
  <path opacity="0.2" d="M21.4375 14C21.6781 14 21.875 14.1969 21.875 14.4375V20.5625C21.875 20.8031 21.6781 21 21.4375 21H17.5C17.2594 21 17.0625 20.8031 17.0625 20.5625V14.4375C17.0625 14.1969 17.2594 14 17.5 14H21.4375ZM21.4375 13.5625H17.5C17.0166 13.5625 16.625 13.9541 16.625 14.4375V20.5625C16.625 21.0459 17.0166 21.4375 17.5 21.4375H21.4375C21.9209 21.4375 22.3125 21.0459 22.3125 20.5625V14.4375C22.3125 13.9541 21.9209 13.5625 21.4375 13.5625Z" fill="#424242"/>
  <path d="M14 24.5H6.125V13.5625C6.125 13.3219 6.32187 13.125 6.5625 13.125H13.5625C13.8031 13.125 14 13.3219 14 13.5625V24.5Z" fill="url(#paint1_radial)"/>
  <path d="M13.125 23.9684H7C6.87969 23.9684 6.78125 23.87 6.78125 23.7497V13.8753C6.78125 13.755 6.87969 13.6566 7 13.6566H13.125C13.2453 13.6566 13.3438 13.755 13.3438 13.8753V23.7497C13.3438 23.87 13.2453 23.9684 13.125 23.9684Z" fill="url(#paint2_radial)"/>
  <path d="M11.9219 6.89062H16.0781V11.0469H11.9219V6.89062Z" fill="#4FC3F7"/>
  <path d="M11.5938 7V10.9375C11.5938 11.1781 11.7906 11.375 12.0312 11.375H15.9688C16.2094 11.375 16.4062 11.1781 16.4062 10.9375V7C16.4062 6.75937 16.2094 6.5625 15.9688 6.5625H12.0312C11.7906 6.5625 11.5938 6.75937 11.5938 7ZM15.9688 8.75H14.2188V7H15.9688V8.75ZM13.7812 7V8.75H12.0312V7H13.7812ZM12.0312 9.1875H13.7812V10.9375H12.0312V9.1875ZM14.2188 10.9375V9.1875H15.9688V10.9375H14.2188Z" fill="#EEEEEE"/>
  <path d="M17.2878 14.3281H21.6497V20.6719H17.2878V14.3281Z" fill="#4FC3F7"/>
  <path d="M12.4688 17.9375H7.65625C7.53594 17.9375 7.4375 17.8391 7.4375 17.7188V14.6562C7.4375 14.5359 7.53594 14.4375 7.65625 14.4375H12.4688C12.5891 14.4375 12.6875 14.5359 12.6875 14.6562V17.7188C12.6875 17.8391 12.5891 17.9375 12.4688 17.9375Z" fill="url(#paint3_radial)"/>
  <path d="M12.4688 23.1875H7.65625C7.53594 23.1875 7.4375 23.0891 7.4375 22.9688V19.0312C7.4375 18.9109 7.53594 18.8125 7.65625 18.8125H12.4688C12.5891 18.8125 12.6875 18.9109 12.6875 19.0312V22.9688C12.6875 23.0891 12.5891 23.1875 12.4688 23.1875Z" fill="url(#paint4_radial)"/>
  <path d="M14.8794 25.2262H5.25439V24.4256C5.25439 24.3544 5.26843 24.2838 5.29569 24.218C5.32295 24.1522 5.36291 24.0924 5.41329 24.042C5.46366 23.9916 5.52347 23.9517 5.58929 23.9244C5.65511 23.8972 5.72565 23.8831 5.79689 23.8831H14.3391C14.483 23.8831 14.6209 23.9403 14.7227 24.042C14.8244 24.1437 14.8816 24.2817 14.8816 24.4256V25.2262H14.8794Z" fill="url(#paint5_linear)"/>
  <path opacity="0.3" d="M14.3391 24.1019C14.5163 24.1019 14.6628 24.2462 14.6628 24.4256V25.0075H5.47533V24.4256C5.47533 24.2484 5.61971 24.1019 5.79908 24.1019H14.3391ZM14.3391 23.8831H5.79689C5.65301 23.8831 5.51503 23.9403 5.41329 24.042C5.31155 24.1437 5.25439 24.2817 5.25439 24.4256V25.2262H14.8794V24.4256C14.8794 24.1259 14.6366 23.8831 14.3391 23.8831Z" fill="#263238"/>
  <path d="M15.7544 26.4731H4.37939V25.5544C4.37939 25.2394 4.63533 24.9834 4.95033 24.9834H15.1835C15.4985 24.9834 15.7544 25.2394 15.7544 25.5544V26.4731Z" fill="url(#paint6_linear)"/>
  <path opacity="0.3" d="M15.1835 25.2022C15.3781 25.2022 15.5356 25.3597 15.5356 25.5544V26.2544H4.59814V25.5544C4.59814 25.3597 4.75564 25.2022 4.95033 25.2022H15.1835ZM15.1835 24.9834H4.95033C4.63533 24.9834 4.37939 25.2394 4.37939 25.5544V26.4731H15.7544V25.5544C15.7544 25.2394 15.5006 24.9834 15.1835 24.9834Z" fill="#263238"/>
  <path opacity="0.2" d="M9.74154 24.4276C9.7619 24.3798 9.70181 24.3085 9.60733 24.2682C9.51285 24.228 9.41976 24.2341 9.3994 24.2819C9.37905 24.3297 9.43914 24.4011 9.53362 24.4413C9.6281 24.4815 9.72119 24.4754 9.74154 24.4276Z" fill="#424242"/>
  <path opacity="0.2" d="M13.8651 24.8614C13.894 24.8257 13.8643 24.7536 13.7986 24.7003C13.733 24.647 13.6563 24.6327 13.6273 24.6683C13.5984 24.704 13.6282 24.7761 13.6938 24.8294C13.7595 24.8827 13.8362 24.897 13.8651 24.8614Z" fill="#424242"/>
  <path opacity="0.08" d="M10.128 24.7866C10.2525 24.7866 10.3533 24.7376 10.3533 24.6772C10.3533 24.6168 10.2525 24.5678 10.128 24.5678C10.0036 24.5678 9.90271 24.6168 9.90271 24.6772C9.90271 24.7376 10.0036 24.7866 10.128 24.7866Z" fill="#424242"/>
  <path opacity="0.08" d="M12.0705 24.7713C12.195 24.7713 12.2958 24.7223 12.2958 24.6619C12.2958 24.6015 12.195 24.5525 12.0705 24.5525C11.9461 24.5525 11.8452 24.6015 11.8452 24.6619C11.8452 24.7223 11.9461 24.7713 12.0705 24.7713Z" fill="#424242"/>
  <path opacity="0.08" d="M11.6047 24.4781C11.6904 24.4781 11.76 24.436 11.76 24.3841C11.76 24.3321 11.6904 24.29 11.6047 24.29C11.5189 24.29 11.4493 24.3321 11.4493 24.3841C11.4493 24.436 11.5189 24.4781 11.6047 24.4781Z" fill="#424242"/>
  <path opacity="0.08" d="M14.1312 24.5569C14.2544 24.5569 14.3543 24.4962 14.3543 24.4213C14.3543 24.3464 14.2544 24.2856 14.1312 24.2856C14.008 24.2856 13.9081 24.3464 13.9081 24.4213C13.9081 24.4962 14.008 24.5569 14.1312 24.5569Z" fill="#424242"/>
  <path opacity="0.08" d="M8.78056 24.4234C8.86633 24.4234 8.93587 24.3901 8.93587 24.3491C8.93587 24.308 8.86633 24.2747 8.78056 24.2747C8.69478 24.2747 8.62524 24.308 8.62524 24.3491C8.62524 24.3901 8.69478 24.4234 8.78056 24.4234Z" fill="#424242"/>
  <path opacity="0.08" d="M13.2476 24.6106C13.3862 24.5897 13.4904 24.5185 13.4803 24.4516C13.4702 24.3847 13.3497 24.3474 13.2111 24.3683C13.0725 24.3892 12.9684 24.4603 12.9785 24.5272C12.9885 24.5941 13.109 24.6314 13.2476 24.6106Z" fill="#424242"/>
  <path opacity="0.2" d="M9.16343 24.7692C9.29516 24.7382 9.3894 24.6597 9.37393 24.5939C9.35845 24.528 9.23913 24.4997 9.1074 24.5307C8.97568 24.5616 8.88144 24.6401 8.89691 24.7059C8.91238 24.7718 9.03171 24.8001 9.16343 24.7692Z" fill="#424242"/>
  <path opacity="0.2" d="M12.4709 24.4628C12.6425 24.4628 12.7815 24.4119 12.7815 24.3491C12.7815 24.2862 12.6425 24.2353 12.4709 24.2353C12.2993 24.2353 12.1603 24.2862 12.1603 24.3491C12.1603 24.4119 12.2993 24.4628 12.4709 24.4628Z" fill="#424242"/>
  <path opacity="0.2" d="M10.6579 24.3624C10.7446 24.3052 10.7945 24.2278 10.7692 24.1895C10.7439 24.1511 10.6531 24.1664 10.5664 24.2236C10.4796 24.2808 10.4298 24.3582 10.455 24.3965C10.4803 24.4349 10.5711 24.4196 10.6579 24.3624Z" fill="#424242"/>
  <path opacity="0.2" d="M11.4691 24.779C11.4985 24.7154 11.3908 24.603 11.2284 24.528C11.0661 24.453 10.9107 24.4438 10.8813 24.5074C10.8519 24.571 10.9597 24.6834 11.122 24.7584C11.2843 24.8334 11.4397 24.8426 11.4691 24.779Z" fill="#424242"/>
  <path opacity="0.2" d="M14.1807 25.6518C14.2862 25.6134 14.3574 25.5427 14.3397 25.4939C14.3219 25.4451 14.2219 25.4367 14.1164 25.4751C14.0108 25.5135 13.9396 25.5842 13.9573 25.633C13.9751 25.6818 14.0751 25.6903 14.1807 25.6518Z" fill="#424242"/>
  <path opacity="0.2" d="M9.59167 26.0425C9.66652 25.9915 9.70568 25.9185 9.67913 25.8796C9.65258 25.8407 9.57037 25.8505 9.49552 25.9016C9.42067 25.9526 9.38151 26.0256 9.40806 26.0645C9.43461 26.1034 9.51682 26.0936 9.59167 26.0425Z" fill="#424242"/>
  <path opacity="0.08" d="M13.5362 25.994C13.674 25.994 13.7856 25.9451 13.7856 25.8847C13.7856 25.8243 13.674 25.7753 13.5362 25.7753C13.3985 25.7753 13.2869 25.8243 13.2869 25.8847C13.2869 25.9451 13.3985 25.994 13.5362 25.994Z" fill="#424242"/>
  <path opacity="0.08" d="M11.3924 25.9809C11.5302 25.9809 11.6418 25.932 11.6418 25.8716C11.6418 25.8111 11.5302 25.7622 11.3924 25.7622C11.2547 25.7622 11.1431 25.8111 11.1431 25.8716C11.1431 25.932 11.2547 25.9809 11.3924 25.9809Z" fill="#424242"/>
  <path opacity="0.08" d="M11.9066 25.6878C12.0008 25.6878 12.0772 25.6457 12.0772 25.5937C12.0772 25.5418 12.0008 25.4997 11.9066 25.4997C11.8124 25.4997 11.736 25.5418 11.736 25.5937C11.736 25.6457 11.8124 25.6878 11.9066 25.6878Z" fill="#424242"/>
  <path opacity="0.08" d="M9.12183 25.7666C9.25714 25.7666 9.36683 25.7058 9.36683 25.6309C9.36683 25.556 9.25714 25.4953 9.12183 25.4953C8.98652 25.4953 8.87683 25.556 8.87683 25.6309C8.87683 25.7058 8.98652 25.7666 9.12183 25.7666Z" fill="#424242"/>
  <path opacity="0.08" d="M15.0216 25.6331C15.1158 25.6331 15.1922 25.5998 15.1922 25.5588C15.1922 25.5177 15.1158 25.4844 15.0216 25.4844C14.9273 25.4844 14.851 25.5177 14.851 25.5588C14.851 25.5998 14.9273 25.6331 15.0216 25.6331Z" fill="#424242"/>
  <path opacity="0.08" d="M10.389 25.7341C10.3977 25.667 10.2814 25.5967 10.1292 25.577C9.97708 25.5573 9.84668 25.5957 9.83799 25.6628C9.82931 25.7299 9.94562 25.8002 10.0978 25.8199C10.2499 25.8396 10.3803 25.8012 10.389 25.7341Z" fill="#424242"/>
  <path opacity="0.2" d="M14.8962 25.9134C14.9095 25.8471 14.8022 25.7696 14.6565 25.7403C14.5108 25.7111 14.3819 25.7411 14.3686 25.8075C14.3553 25.8738 14.4626 25.9513 14.6083 25.9805C14.754 26.0098 14.8829 25.9798 14.8962 25.9134Z" fill="#424242"/>
  <path opacity="0.2" d="M10.9506 25.6725C11.1391 25.6725 11.2919 25.6216 11.2919 25.5587C11.2919 25.4959 11.1391 25.445 10.9506 25.445C10.7622 25.445 10.6094 25.4959 10.6094 25.5587C10.6094 25.6216 10.7622 25.6725 10.9506 25.6725Z" fill="#424242"/>
  <path opacity="0.2" d="M13.1791 25.6046C13.2025 25.5637 13.1432 25.4858 13.0468 25.4307C12.9503 25.3755 12.8531 25.3639 12.8297 25.4048C12.8063 25.4458 12.8656 25.5236 12.9621 25.5788C13.0586 25.6339 13.1557 25.6455 13.1791 25.6046Z" fill="#424242"/>
  <path opacity="0.2" d="M12.4306 25.9686C12.6098 25.896 12.7333 25.7836 12.7065 25.7175C12.6797 25.6514 12.5128 25.6568 12.3336 25.7294C12.1545 25.802 12.031 25.9144 12.0578 25.9805C12.0845 26.0465 12.2515 26.0412 12.4306 25.9686Z" fill="#424242"/>
  <path d="M17.5 14C17.2594 14 17.0625 14.1969 17.0625 14.4375V20.5625C17.0625 20.8031 17.2594 21 17.5 21H21.4375C21.6781 21 21.875 20.8031 21.875 20.5625V14.4375C21.875 14.1969 21.6781 14 21.4375 14H17.5ZM19.6875 14.4375H21.4375V16.1875H19.6875V14.4375ZM17.5 14.4375H19.25V16.1875H17.5V14.4375ZM17.5 16.625H19.25V18.375H17.5V16.625ZM19.25 20.5625H17.5V18.8125H19.25V20.5625ZM21.4375 20.5625H19.6875V18.8125H21.4375V20.5625ZM19.6875 18.375V16.625H21.4375V18.375H19.6875Z" fill="#EEEEEE"/>
  <path d="M12.4097 19.4688C12.8929 19.4688 13.2847 19.077 13.2847 18.5938C13.2847 18.1105 12.8929 17.7188 12.4097 17.7188C11.9264 17.7188 11.5347 18.1105 11.5347 18.5938C11.5347 19.077 11.9264 19.4688 12.4097 19.4688Z" fill="#FFC107"/>
  <path d="M12.4097 17.9375C12.7728 17.9375 13.0659 18.2306 13.0659 18.5938C13.0659 18.9569 12.7728 19.25 12.4097 19.25C12.0465 19.25 11.7534 18.9569 11.7534 18.5938C11.7534 18.2306 12.0487 17.9375 12.4097 17.9375ZM12.4097 17.5C11.8059 17.5 11.3159 17.99 11.3159 18.5938C11.3159 19.1975 11.8059 19.6875 12.4097 19.6875C13.0134 19.6875 13.5034 19.1975 13.5034 18.5938C13.5034 17.99 13.0134 17.5 12.4097 17.5Z" fill="#C62828"/>
  <path d="M22.0938 21.875H16.8438C16.6031 21.875 16.4062 21.6781 16.4062 21.4375V20.5625C16.4062 20.3219 16.6031 20.125 16.8438 20.125H22.0938C22.3344 20.125 22.5312 20.3219 22.5312 20.5625V21.4375C22.5312 21.6781 22.3344 21.875 22.0938 21.875Z" fill="#795548"/>
  <path opacity="0.2" d="M22.0938 20.5625V21.4375H16.8438V20.5625H22.0938ZM22.0938 20.125H16.8438C16.6031 20.125 16.4062 20.3219 16.4062 20.5625V21.4375C16.4062 21.6781 16.6031 21.875 16.8438 21.875H22.0938C22.3344 21.875 22.5312 21.6781 22.5312 21.4375V20.5625C22.5312 20.3219 22.3344 20.125 22.0938 20.125Z" fill="#424242"/>
  <path d="M26.7487 11.6375L14.6999 1.13749C14.506 0.96826 14.2573 0.875015 13.9999 0.875015C13.7425 0.875015 13.4939 0.96826 13.2999 1.13749L1.25117 11.6375C0.800547 12.0312 0.748047 12.7203 1.13523 13.1797C1.52242 13.6391 2.20055 13.6916 2.65117 13.2978L13.569 3.78437C13.8162 3.56999 14.1837 3.56999 14.4309 3.78437L25.3487 13.2978C25.4556 13.391 25.58 13.462 25.7147 13.5065C25.8494 13.551 25.9916 13.5681 26.133 13.5569C26.2744 13.5457 26.4122 13.5064 26.5382 13.4412C26.6642 13.3761 26.7759 13.2864 26.8668 13.1775C27.2518 12.7225 27.1993 12.0312 26.7487 11.6375Z" fill="url(#paint7_radial)"/>
  <path d="M1.39347 26.9063C1.24909 26.9063 1.17034 26.7531 1.14409 26.6875C1.06316 26.4928 1.07191 26.2063 1.24253 26.0356C1.31253 25.9656 1.31909 25.8475 1.27316 25.7622C1.16816 25.5763 1.12441 25.3444 1.14847 25.1103C1.22066 24.3797 1.78941 23.7759 2.53316 23.6403C2.63597 23.6228 2.73878 23.6119 2.8416 23.6119C2.97722 23.6119 3.11503 23.6294 3.24847 23.6622C3.29329 23.6733 3.34048 23.67 3.3833 23.6528C3.42613 23.6355 3.46239 23.6051 3.48691 23.5659C3.80191 23.0606 4.34222 22.7588 4.93503 22.7588C5.68753 22.7588 6.36128 23.2641 6.57128 23.9859C6.59972 24.08 6.68503 24.1434 6.78128 24.1434C6.79441 24.1434 6.80753 24.1413 6.82285 24.1391C6.93003 24.1194 7.03722 24.1084 7.14222 24.1084C7.27566 24.1084 7.4091 24.1238 7.54035 24.1566C8.25128 24.3294 8.78722 24.9572 8.8441 25.6791C8.8791 26.1319 8.7391 26.5628 8.45253 26.9063H1.39347Z" fill="url(#paint8_radial)"/>
  <path d="M4.93496 22.9753C5.59121 22.9753 6.17746 23.415 6.36121 24.045C6.4159 24.2353 6.5909 24.36 6.78121 24.36C6.80746 24.36 6.8359 24.3578 6.86215 24.3512C6.95402 24.3337 7.04808 24.325 7.13996 24.325C7.2559 24.325 7.37183 24.3381 7.48558 24.3666C8.10683 24.5175 8.57496 25.0644 8.62308 25.6944C8.65152 26.0553 8.5509 26.4009 8.34308 26.6853L1.40433 26.6875C1.38902 26.6787 1.33652 26.6153 1.31902 26.4972C1.30371 26.4009 1.31902 26.2675 1.39777 26.1866C1.50715 26.0794 1.58808 25.8737 1.4634 25.6506C1.38027 25.5041 1.34527 25.3181 1.36496 25.1256C1.42621 24.5022 1.93371 23.9662 2.57027 23.8503C2.65996 23.835 2.74965 23.8262 2.83933 23.8262C2.95746 23.8262 3.07777 23.8416 3.19371 23.87C3.22871 23.8787 3.26371 23.8831 3.29871 23.8831C3.44746 23.8831 3.58965 23.8066 3.67058 23.6775C3.94402 23.24 4.41652 22.9753 4.93496 22.9753ZM4.93496 22.5378C4.24371 22.5378 3.63996 22.9009 3.3009 23.4478C3.15433 23.4128 3.00121 23.3931 2.84152 23.3931C2.72777 23.3931 2.61183 23.4041 2.49371 23.4237C1.67121 23.5725 1.01277 24.255 0.929647 25.0862C0.881522 25.5741 1.09152 25.8759 1.08715 25.8803C0.678084 26.2916 0.903397 27.125 1.3934 27.125H8.54871C8.73094 26.9304 8.87059 26.7 8.95872 26.4483C9.04686 26.1967 9.08155 25.9295 9.06059 25.6637C8.99715 24.8391 8.39558 24.1412 7.59058 23.9444C7.44381 23.9084 7.29327 23.89 7.14215 23.8897C7.01965 23.8897 6.89933 23.9028 6.78121 23.9247C6.54715 23.1241 5.80996 22.5378 4.93496 22.5378Z" fill="#689F38"/>
  <path d="M3.04283 24.7034C3.04283 24.7034 3.02533 24.1763 3.4497 23.6119" stroke="#689F38" stroke-width="0.5" stroke-miterlimit="10" stroke-linecap="round" stroke-linejoin="round"/>
  <path d="M6.74845 24.1434C6.2497 24.1522 5.76407 24.5437 5.6897 25.0206" stroke="#689F38" stroke-width="0.5" stroke-miterlimit="10" stroke-linecap="round" stroke-linejoin="round"/>
  <path d="M6.23656 25.2416C5.79906 25.0425 5.21063 25.0731 4.75781 25.305" stroke="#689F38" stroke-width="0.5" stroke-miterlimit="10" stroke-linecap="round" stroke-linejoin="round"/>
  <path opacity="0.2" d="M13.9999 1.53125C14.0699 1.53125 14.1727 1.54875 14.269 1.63406L26.3177 12.1341C26.4993 12.2938 26.5212 12.5738 26.3637 12.7597C26.2543 12.8888 26.1187 12.9084 26.0487 12.9084C25.9787 12.9084 25.8759 12.8909 25.7796 12.8056L14.8618 3.29C14.6234 3.08219 14.3171 2.96625 13.9999 2.96625C13.6827 2.96625 13.3765 3.08 13.138 3.29L2.22023 12.8034C2.12398 12.8888 2.02117 12.9063 1.95117 12.9063C1.88117 12.9063 1.74555 12.8866 1.63617 12.7575C1.47867 12.5716 1.50055 12.2916 1.68211 12.1319L13.7309 1.63188C13.8271 1.54875 13.9299 1.53125 13.9999 1.53125ZM13.9999 0.875C13.7505 0.875 13.5012 0.9625 13.2999 1.1375L1.25117 11.6375C0.800547 12.0313 0.748047 12.7203 1.13523 13.1797C1.23464 13.2997 1.35932 13.3962 1.50038 13.4624C1.64143 13.5286 1.79537 13.5627 1.95117 13.5625C2.19836 13.5625 2.44773 13.475 2.65117 13.3L13.569 3.78437C13.6884 3.68015 13.8414 3.62265 13.9999 3.6225C14.1584 3.62265 14.3115 3.68015 14.4309 3.78437L25.3487 13.2978C25.4556 13.391 25.58 13.462 25.7147 13.5065C25.8494 13.551 25.9916 13.5681 26.133 13.5569C26.2744 13.5457 26.4122 13.5064 26.5382 13.4412C26.6642 13.3761 26.7759 13.2864 26.8668 13.1775C27.254 12.7181 27.2015 12.0291 26.7509 11.6353L14.6999 1.1375C14.4987 0.9625 14.2493 0.875 13.9999 0.875Z" fill="#424242"/>
  <defs>
    <radialGradient id="paint0_radial" cx="0" cy="0" r="1" gradientUnits="userSpaceOnUse" gradientTransform="translate(14 1.827) scale(27.1578)">
      <stop stop-color="#FFD54F"/>
      <stop offset="0.179" stop-color="#FFD34B"/>
      <stop offset="0.353" stop-color="#FFCE3F"/>
      <stop offset="0.524" stop-color="#FFC62C"/>
      <stop offset="0.693" stop-color="#FFBA11"/>
      <stop offset="0.778" stop-color="#FFB300"/>
      <stop offset="1" stop-color="#FFB300"/>
    </radialGradient>
    <radialGradient id="paint1_radial" cx="0" cy="0" r="1" gradientUnits="userSpaceOnUse" gradientTransform="translate(9.92578 13.0703) scale(11.4848)">
      <stop stop-color="#D32F2F"/>
      <stop offset="0.437" stop-color="#CA2929"/>
      <stop offset="0.996" stop-color="#B71C1C"/>
    </radialGradient>
    <radialGradient id="paint2_radial" cx="0" cy="0" r="1" gradientUnits="userSpaceOnUse" gradientTransform="translate(10.0352 13.6719) scale(10.3095)">
      <stop stop-color="#EF5350"/>
      <stop offset="1" stop-color="#E53935"/>
    </radialGradient>
    <radialGradient id="paint3_radial" cx="0" cy="0" r="1" gradientUnits="userSpaceOnUse" gradientTransform="translate(9.95313 14.6016) scale(9.10328)">
      <stop stop-color="#E53935"/>
      <stop offset="0.407" stop-color="#DC3431"/>
      <stop offset="1" stop-color="#C62828"/>
    </radialGradient>
    <radialGradient id="paint4_radial" cx="0" cy="0" r="1" gradientUnits="userSpaceOnUse" gradientTransform="translate(9.95313 14.6016) scale(9.10328)">
      <stop stop-color="#E53935"/>
      <stop offset="0.407" stop-color="#DC3431"/>
      <stop offset="1" stop-color="#C62828"/>
    </radialGradient>
    <linearGradient id="paint5_linear" x1="10.0678" y1="23.9903" x2="10.0678" y2="25.4187" gradientUnits="userSpaceOnUse">
      <stop offset="0.004" stop-color="#BDBDBD"/>
      <stop offset="0.215" stop-color="#B5B5B5"/>
      <stop offset="0.55" stop-color="#9E9E9E"/>
      <stop offset="0.965" stop-color="#787878"/>
      <stop offset="1" stop-color="#757575"/>
    </linearGradient>
    <linearGradient id="paint6_linear" x1="10.0678" y1="25.0294" x2="10.0678" y2="26.4491" gradientUnits="userSpaceOnUse">
      <stop offset="0.004" stop-color="#BDBDBD"/>
      <stop offset="0.397" stop-color="#BABABA"/>
      <stop offset="0.703" stop-color="#B0B0B0"/>
      <stop offset="0.979" stop-color="#A0A0A0"/>
      <stop offset="1" stop-color="#9E9E9E"/>
    </linearGradient>
    <radialGradient id="paint7_radial" cx="0" cy="0" r="1" gradientUnits="userSpaceOnUse" gradientTransform="translate(13.8905 0.820303) scale(14.796)">
      <stop stop-color="#F44336"/>
      <stop offset="0.34" stop-color="#EE3F35"/>
      <stop offset="0.803" stop-color="#DC3531"/>
      <stop offset="0.996" stop-color="#D32F2F"/>
    </radialGradient>
    <radialGradient id="paint8_radial" cx="0" cy="0" r="1" gradientUnits="userSpaceOnUse" gradientTransform="translate(4.82139 22.9983) rotate(90) scale(5.31518 6.17465)">
      <stop stop-color="#9CCC65"/>
      <stop offset="0.254" stop-color="#96C760"/>
      <stop offset="0.599" stop-color="#84B851"/>
      <stop offset="0.995" stop-color="#689F38"/>
    </radialGradient>
  </defs>
</svg>
